<svg width="31" height="24" viewBox="0 0 31 24" fill="none" xmlns="http://www.w3.org/2000/svg">
<path d="M30.4 10.0981L20.4179 19.3962L20.4179 13.1976C20.4179 13.1976 19.9642 13.1976 19.208 13.0567C18.4517 12.9158 17.5443 12.7749 16.3343 12.7749C15.1244 12.634 13.9144 12.6341 12.5533 12.9158C11.797 12.9158 11.192 13.1976 10.4358 13.3384C9.67959 13.6202 9.07462 13.7611 8.3184 14.0428C7.5623 14.3246 6.95742 14.7471 6.35254 15.1697L6.35225 15.1699L6.3522 15.1699C5.74724 15.5926 5.14228 16.0152 4.68856 16.5787L4.68812 16.5791C4.08336 17.1424 3.62975 17.565 3.17613 18.1284C2.72239 18.6919 2.26868 19.1145 1.9662 19.678C1.66374 20.2415 1.36128 20.6641 1.05882 21.0867L1.05872 21.0868C0.90748 21.5095 0.605002 21.9322 0.453759 22.2139C0.151271 22.9183 0 23.2001 0 23.2001C0 23.2001 9.2268e-06 22.7774 0.151253 22.073C0.151253 21.7913 0.302515 21.2278 0.453759 20.8051C0.604919 20.3827 0.75606 19.8196 0.907221 19.2564L0.907471 19.2554C1.05871 18.6919 1.3612 17.9875 1.66369 17.424C1.96618 16.7196 2.26868 16.0152 2.72241 15.3108C3.0249 14.6064 3.62988 13.902 4.23485 13.1976L4.23493 13.1975C4.83988 12.4931 5.44481 11.7887 6.201 11.2252L8.46965 9.5347C9.22587 9.11206 10.1334 8.68939 11.0408 8.26675C12.7045 7.56235 14.3681 7.13971 15.7293 6.85795C17.0905 6.57619 18.3005 6.43531 19.0567 6.29443C19.8129 6.15355 20.4179 6.15005 20.4179 6.15005V0.800049L30.4 10.0981Z" fill="#1E2749"/>
</svg>
